<svg xmlns="http://www.w3.org/2000/svg" width="21" height="20" viewBox="0 0 21 20" fill="none">
  <g clip-path="url(#clip0_49_184)">
    <path d="M19.8441 7.5198L11.3801 0.339514C11.139 0.121018 10.8253 0 10.4999 0C10.1746 0 9.86086 0.121018 9.61979 0.339514L1.1567 7.5199C0.950039 7.70713 0.784879 7.93555 0.671844 8.19047C0.55881 8.44538 0.500408 8.72115 0.500397 9V19.3357C0.500397 19.5119 0.570369 19.6808 0.694928 19.8054C0.819487 19.93 0.988434 20 1.1646 20L6.5004 20C7.05268 20 7.5004 19.5523 7.5004 19V15C7.5004 14.436 8.05249 13.9788 8.61669 13.9788H12.3832C12.9475 13.9788 13.5004 14.436 13.5004 15V19C13.5004 19.5523 13.9481 20 14.5004 20H19.8362C20.0124 20 20.1813 19.93 20.3059 19.8054C20.4304 19.6808 20.5004 19.5119 20.5004 19.3357V9C20.5004 8.72114 20.4419 8.44537 20.3289 8.19044C20.2159 7.93551 20.0507 7.70707 19.8441 7.5198Z" fill="white"/>
  </g>
  <defs>
    <clipPath id="clip0_49_184">
      <rect width="20" height="20" fill="white" transform="translate(0.5)"/>
    </clipPath>
  </defs>
</svg>