<svg xmlns="http://www.w3.org/2000/svg" width="21" height="20" viewBox="0 0 21 20" fill="none">
  <path d="M20.4759 9.1546C20.2898 6.39176 18.8945 3.81175 16.6851 2.0993C14.4759 0.386682 11.592 -0.32109 8.80125 0.135523C3.82444 0.980455 0.173225 5.50121 0.522067 10.4787C0.684939 12.8762 1.70809 15.0909 3.42908 16.7806C2.98717 17.4199 2.59186 17.8309 1.54538 18.6529C1.33611 18.8128 1.243 19.0638 1.31275 19.315C1.35931 19.5662 1.54538 19.7716 1.77783 19.8401C2.12661 19.9543 2.63827 20 3.21967 20C4.45224 20 6.01036 19.7261 7.21972 19.1095C8.82444 19.6576 10.5453 19.7945 12.243 19.4977C17.2199 18.63 20.8246 14.0863 20.4757 9.15445L20.4759 9.1546ZM5.84776 11.5976C4.94077 11.5976 4.21987 10.8898 4.21987 9.99937C4.21987 9.10889 4.94077 8.40112 5.84776 8.40112C6.75475 8.40112 7.47565 9.10889 7.47565 9.99937C7.47565 10.8898 6.75475 11.5976 5.84776 11.5976ZM10.499 11.5976C9.592 11.5976 8.8711 10.8898 8.8711 9.99937C8.8711 9.10889 9.592 8.40112 10.499 8.40112C11.406 8.40112 12.1269 9.10889 12.1269 9.99937C12.1269 10.8898 11.406 11.5976 10.499 11.5976ZM15.1502 11.5976C14.2432 11.5976 13.5223 10.8898 13.5223 9.99937C13.5223 9.10889 14.2432 8.40112 15.1502 8.40112C16.0572 8.40112 16.7781 9.10889 16.7781 9.99937C16.7781 10.8898 16.0572 11.5976 15.1502 11.5976Z" fill="#F4F6F8"/>
</svg>