<svg width="41" height="40" viewBox="0 0 41 40" fill="none" xmlns="http://www.w3.org/2000/svg">
<rect x="0.5" width="40" height="40" rx="7" fill="#858EAD"/>
<g clip-path="url(#clip0_24_184)">
<path d="M30.4759 19.1546C30.2898 16.3918 28.8945 13.8117 26.6851 12.0993C24.4759 10.3867 21.592 9.67891 18.8012 10.1355C13.8244 10.9805 10.1732 15.5012 10.5221 20.4787C10.6849 22.8762 11.7081 25.0909 13.4291 26.7806C12.9872 27.4199 12.5919 27.8309 11.5454 28.6529C11.3361 28.8128 11.243 29.0638 11.3128 29.315C11.3593 29.5662 11.5454 29.7716 11.7778 29.8401C12.1266 29.9543 12.6383 30 13.2197 30C14.4522 30 16.0104 29.7261 17.2197 29.1095C18.8244 29.6576 20.5453 29.7945 22.243 29.4977C27.2199 28.63 30.8246 24.0863 30.4757 19.1545L30.4759 19.1546ZM15.8478 21.5976C14.9408 21.5976 14.2199 20.8898 14.2199 19.9994C14.2199 19.1089 14.9408 18.4011 15.8478 18.4011C16.7547 18.4011 17.4756 19.1089 17.4756 19.9994C17.4756 20.8898 16.7547 21.5976 15.8478 21.5976ZM20.499 21.5976C19.592 21.5976 18.8711 20.8898 18.8711 19.9994C18.8711 19.1089 19.592 18.4011 20.499 18.4011C21.406 18.4011 22.1269 19.1089 22.1269 19.9994C22.1269 20.8898 21.406 21.5976 20.499 21.5976ZM25.1502 21.5976C24.2432 21.5976 23.5223 20.8898 23.5223 19.9994C23.5223 19.1089 24.2432 18.4011 25.1502 18.4011C26.0572 18.4011 26.7781 19.1089 26.7781 19.9994C26.7781 20.8898 26.0572 21.5976 25.1502 21.5976Z" fill="#F4F6F8"/>
</g>
<defs>
<clipPath id="clip0_24_184">
<rect width="20" height="20" fill="white" transform="translate(10.5 10)"/>
</clipPath>
</defs>
</svg>
