<svg xmlns="http://www.w3.org/2000/svg" width="21" height="20" viewBox="0 0 21 20" fill="none">
  <path fill-rule="evenodd" clip-rule="evenodd" d="M18.8325 13.0613H18.4128C19.569 13.0613 20.5 13.9747 20.5 15.1015V15.511C20.5 15.9648 20.1268 16.3266 19.6661 16.3266H1.33387C0.872903 16.3266 0.5 15.9613 0.5 15.511V15.1015C0.5 13.9752 1.43447 13.0613 2.58717 13.0613H2.16748C2.62554 13.0613 2.99994 12.6955 2.99994 12.2442V7.34691C2.99994 3.28752 6.35782 0 10.5001 0C14.6434 0 18.0003 3.28927 18.0003 7.34691V12.2442C18.0003 12.6983 18.3729 13.0613 18.8327 13.0613H18.8325ZM7.58301 17.1429H13.4163C13.4163 18.7208 12.1104 20 10.4997 20C8.88892 20 7.58301 18.7208 7.58301 17.1429Z" fill="#F4F6F8"/>
  <circle cx="17" cy="3.5" r="3" fill="#FF6934" stroke="#262D34"/>
</svg>