<svg width="101" height="40" viewBox="0 0 101 40" fill="none" xmlns="http://www.w3.org/2000/svg">
<rect x="0.5" width="100" height="40" rx="10" fill="#F0AB1F"/>
<path d="M20.98 27.24C19.8867 27.24 18.88 26.9867 17.96 26.48C17.04 25.9733 16.3 25.2267 15.74 24.24C15.1933 23.24 14.92 22.0133 14.92 20.56C14.92 19.12 15.2 17.8933 15.76 16.88C16.3333 15.8533 17.0867 15.0733 18.02 14.54C18.9667 13.9933 19.9867 13.72 21.08 13.72C21.92 13.72 22.6733 13.8933 23.34 14.24C24.0067 14.5733 24.56 14.9667 25 15.42L23.44 17.3C23.1067 16.9933 22.7533 16.7467 22.38 16.56C22.02 16.36 21.6067 16.26 21.14 16.26C20.5533 16.26 20.0133 16.4267 19.52 16.76C19.04 17.0933 18.6533 17.5733 18.36 18.2C18.08 18.8267 17.94 19.58 17.94 20.46C17.94 21.7933 18.2267 22.8333 18.8 23.58C19.3733 24.3267 20.14 24.7 21.1 24.7C21.6333 24.7 22.1067 24.58 22.52 24.34C22.9467 24.1 23.32 23.8133 23.64 23.48L25.2 25.32C24.1067 26.6 22.7 27.24 20.98 27.24ZM31.2006 27.24C30.3606 27.24 29.5673 27.04 28.8206 26.64C28.0873 26.2267 27.494 25.6333 27.0406 24.86C26.5873 24.0733 26.3606 23.1333 26.3606 22.04C26.3606 20.9333 26.5873 19.9933 27.0406 19.22C27.494 18.4467 28.0873 17.86 28.8206 17.46C29.5673 17.0467 30.3606 16.84 31.2006 16.84C32.0406 16.84 32.8273 17.0467 33.5606 17.46C34.294 17.86 34.8873 18.4467 35.3406 19.22C35.794 19.9933 36.0206 20.9333 36.0206 22.04C36.0206 23.1333 35.794 24.0733 35.3406 24.86C34.8873 25.6333 34.294 26.2267 33.5606 26.64C32.8273 27.04 32.0406 27.24 31.2006 27.24ZM31.2006 24.86C31.8006 24.86 32.254 24.6067 32.5606 24.1C32.8673 23.58 33.0206 22.8933 33.0206 22.04C33.0206 21.1733 32.8673 20.4867 32.5606 19.98C32.254 19.4733 31.8006 19.22 31.2006 19.22C30.5873 19.22 30.1273 19.4733 29.8206 19.98C29.5273 20.4867 29.3806 21.1733 29.3806 22.04C29.3806 22.8933 29.5273 23.58 29.8206 24.1C30.1273 24.6067 30.5873 24.86 31.2006 24.86ZM38.0344 27V17.08H40.4344L40.6344 18.34H40.7144C41.141 17.94 41.6077 17.5933 42.1144 17.3C42.6344 16.9933 43.2277 16.84 43.8944 16.84C44.9744 16.84 45.7544 17.2 46.2344 17.92C46.7277 18.6267 46.9744 19.6 46.9744 20.84V27H44.0344V21.22C44.0344 20.5 43.9344 20.0067 43.7344 19.74C43.5477 19.4733 43.241 19.34 42.8144 19.34C42.441 19.34 42.121 19.4267 41.8544 19.6C41.5877 19.76 41.2944 19.9933 40.9744 20.3V27H38.0344ZM49.4797 27V17.08H51.8797L52.0797 18.34H52.1597C52.5864 17.94 53.053 17.5933 53.5597 17.3C54.0797 16.9933 54.673 16.84 55.3397 16.84C56.4197 16.84 57.1997 17.2 57.6797 17.92C58.173 18.6267 58.4197 19.6 58.4197 20.84V27H55.4797V21.22C55.4797 20.5 55.3797 20.0067 55.1797 19.74C54.993 19.4733 54.6864 19.34 54.2597 19.34C53.8864 19.34 53.5664 19.4267 53.2997 19.6C53.033 19.76 52.7397 19.9933 52.4197 20.3V27H49.4797ZM65.365 27.24C64.4183 27.24 63.565 27.0333 62.805 26.62C62.045 26.2067 61.445 25.6133 61.005 24.84C60.565 24.0667 60.345 23.1333 60.345 22.04C60.345 20.96 60.565 20.0333 61.005 19.26C61.4583 18.4867 62.045 17.8933 62.765 17.48C63.485 17.0533 64.2383 16.84 65.025 16.84C65.9717 16.84 66.7517 17.0533 67.365 17.48C67.9917 17.8933 68.4583 18.46 68.765 19.18C69.085 19.8867 69.245 20.6933 69.245 21.6C69.245 21.8533 69.2317 22.1067 69.205 22.36C69.1783 22.6 69.1517 22.78 69.125 22.9H63.185C63.3183 23.62 63.6183 24.1533 64.085 24.5C64.5517 24.8333 65.1117 25 65.765 25C66.4717 25 67.185 24.78 67.905 24.34L68.885 26.12C68.3783 26.4667 67.8117 26.74 67.185 26.94C66.5583 27.14 65.9517 27.24 65.365 27.24ZM63.165 20.96H66.745C66.745 20.4133 66.6117 19.9667 66.345 19.62C66.0917 19.26 65.6717 19.08 65.085 19.08C64.6317 19.08 64.225 19.24 63.865 19.56C63.505 19.8667 63.2717 20.3333 63.165 20.96ZM75.5966 27.24C74.6766 27.24 73.8432 27.04 73.0966 26.64C72.3632 26.2267 71.7766 25.6333 71.3366 24.86C70.9099 24.0733 70.6966 23.1333 70.6966 22.04C70.6966 20.9333 70.9366 19.9933 71.4166 19.22C71.8966 18.4467 72.5299 17.86 73.3166 17.46C74.1032 17.0467 74.9499 16.84 75.8566 16.84C76.4699 16.84 77.0099 16.94 77.4766 17.14C77.9566 17.34 78.3832 17.5933 78.7566 17.9L77.3766 19.8C76.9099 19.4133 76.4632 19.22 76.0366 19.22C75.3299 19.22 74.7632 19.4733 74.3366 19.98C73.9232 20.4867 73.7166 21.1733 73.7166 22.04C73.7166 22.8933 73.9232 23.58 74.3366 24.1C74.7632 24.6067 75.2966 24.86 75.9366 24.86C76.2566 24.86 76.5699 24.7933 76.8766 24.66C77.1832 24.5133 77.4632 24.34 77.7166 24.14L78.8766 26.06C78.3832 26.4867 77.8499 26.7933 77.2766 26.98C76.7032 27.1533 76.1432 27.24 75.5966 27.24ZM84.2372 27.24C83.0105 27.24 82.1305 26.8867 81.5972 26.18C81.0772 25.4733 80.8172 24.5467 80.8172 23.4V19.38H79.4572V17.2L80.9772 17.08L81.3172 14.44H83.7572V17.08H86.1372V19.38H83.7572V23.36C83.7572 23.92 83.8705 24.3267 84.0972 24.58C84.3372 24.82 84.6505 24.94 85.0372 24.94C85.1972 24.94 85.3572 24.92 85.5172 24.88C85.6905 24.84 85.8439 24.7933 85.9772 24.74L86.4372 26.88C86.1839 26.96 85.8705 27.04 85.4972 27.12C85.1372 27.2 84.7172 27.24 84.2372 27.24Z" fill="white"/>
</svg>
