<svg width="41" height="40" viewBox="0 0 41 40" fill="none" xmlns="http://www.w3.org/2000/svg">
<rect x="0.5" width="40" height="40" rx="7" fill="#858EAD"/>
<g clip-path="url(#clip0_24_188)">
<path fill-rule="evenodd" clip-rule="evenodd" d="M28.8325 23.0613H28.4128C29.569 23.0613 30.5 23.9747 30.5 25.1015V25.511C30.5 25.9648 30.1268 26.3266 29.6661 26.3266H11.3339C10.8729 26.3266 10.5 25.9613 10.5 25.511V25.1015C10.5 23.9752 11.4345 23.0613 12.5872 23.0613H12.1675C12.6255 23.0613 12.9999 22.6955 12.9999 22.2442V17.3469C12.9999 13.2875 16.3578 10 20.5001 10C24.6434 10 28.0003 13.2893 28.0003 17.3469V22.2442C28.0003 22.6983 28.3729 23.0613 28.8327 23.0613H28.8325ZM17.583 27.1429H23.4163C23.4163 28.7208 22.1104 30 20.4997 30C18.8889 30 17.583 28.7208 17.583 27.1429Z" fill="#F4F6F8"/>
<circle cx="27" cy="13.5" r="3" fill="#FF6934" stroke="#262D34"/>
</g>
<defs>
<clipPath id="clip0_24_188">
<rect width="20" height="20" fill="white" transform="translate(10.5 10)"/>
</clipPath>
</defs>
</svg>
